<svg viewBox="0 0 256 154" xmlns="http://www.w3.org/2000/svg" preserveAspectRatio="xMidYMid">
  <defs>
    <linearGradient x1="0%" y1="0%" x2="100%" y2="0%" id="a">
      <stop stop-color="#2298BD" offset="0%"></stop>
      <stop stop-color="#0ED7B5" offset="100%"></stop>
    </linearGradient>
  </defs>
  <path d="M128 0C93.867 0 74.667 17.067 70.4 51.2c9.6-17.067 21.333-23.467 36.8-19.2 8 2.133 13.867 8 20.267 14.4 10.667 10.667 22.4 22.4 48 22.4 34.133 0 53.333-17.067 57.6-51.2-9.6 17.067-21.333 23.467-36.8 19.2-8-2.133-13.867-8-20.267-14.4C165.333 11.733 153.6 0 128 0zM70.4 68.267c-34.133 0-53.333 17.067-57.6 51.2 9.6-17.067 21.333-23.467 36.8-19.2 8 2.133 13.867 8 20.267 14.4 10.667 10.667 22.4 22.4 48 22.4 34.133 0 53.333-17.067 57.6-51.2-9.6 17.067-21.333 23.467-36.8 19.2-8-2.133-13.867-8-20.267-14.4C107.733 80 96 68.267 70.4 68.267z" fill="url(#a)"></path>
</svg>
